<svg xmlns="http://www.w3.org/2000/svg" width="212" height="208" fill="none">
  <path fill="#C2B6FF" d="M82 132v-3c0-5-1-9-4-13 4 4 9 6 15 7l4 3 13 26v4l1-1v1l4-14 3-8c4 6 9 9 15 11v2c-11 15-10 45-10 45H97s1-31-5-40l-7-13-3-7Z"/>
  <path fill="#C2B6FF" d="M123 194H97l-2-2c0-16 0-28-4-39-2-5-4-10-7-13l-3-4v-2l2-2 3 6 8 14v1c3 10 4 22 4 38h24c0-6 0-31 9-44l1-1 1-1h2v2l-1 1c-10 14-9 44-9 44l-1 1-1 1Z"/>
  <path fill="#C2B6FF" d="m110 158-1-2v-1l-1-2c-2-8-6-20-12-26l-4-2-1-1 2-2a18 18 0 0 1 5 3c6 6 10 17 13 25a186 186 0 0 1 6-16h2v2l-3 6-4 13v1l-2 2c1 0 1 0 0 0Z"/>
  <path fill="#9585E5" d="M183 95a27 27 0 0 0-29-43l1-9a29 29 0 0 0-54-14c-5-7-13-11-22-11-14 0-26 12-27 27-9 3-17 12-17 23 0 3 0 7 2 10a26 26 0 0 0 3 52h2a20 20 0 0 0 40 2v-3c0-5-1-9-4-13 4 4 9 6 15 7h2v1c7 0 13-3 18-7v2c0 5 1 10 3 14l2 2c2 4 8 7 13 9l2 1h1l2 1h4c9 0 16-4 21-10 4 3 8 4 13 4 13 0 23-10 23-23 0-10-6-18-14-22Z"/>
  <path fill="#9585E5" d="M62 151c-10 0-19-8-21-19a28 28 0 0 1-6-55l-1-9c0-11 8-21 17-24 2-15 14-27 29-27 8 0 16 4 21 9a30 30 0 0 1 55 24l8-1a28 28 0 0 1 21 46c9 4 14 13 14 23a25 25 0 0 1-37 21 29 29 0 0 1-28 8h-1c-7-2-12-6-16-11l-2-2-4-14c-3 3-9 6-16 6h-2l-10-4a20 20 0 0 1 1 10l-1 4c-3 9-11 15-21 15Zm-19-21c2 11 10 18 19 18a19 19 0 0 0 19-16v-3c0-4-1-8-4-11v-2h2c5 4 10 6 14 7h3c7 0 13-5 16-7l2-1 1 2v2a25 25 0 0 0 4 15h1c3 5 8 8 14 10l7 1c7 0 15-4 20-9l1-1c4 3 8 4 12 4 12 0 22-10 22-22 0-9-5-17-14-20v-3c5-5 7-11 7-17a25 25 0 0 0-34-23l-2-1v-1l1-9a28 28 0 0 0-51-14l-1 1-2-1c-5-6-12-9-20-9-14 0-25 10-26 25l-1 1c-8 3-16 11-16 21 0 4 0 7 2 10v1l-1 1a25 25 0 0 0 3 49h1l1 2Z"/>
  <path fill="#9585E5" d="M51 82v-1l-11-2h-3l-1-1 1-1 3-1 12 3v2l-1 1Zm-9 50-1-2 1-1c4-1 9-2 13-5h2l-1 2c-4 3-9 5-14 6Zm29-82-1-1c-5-3-12-4-18-2l-1-1 1-2c6-2 14-1 19 3l1 2-1 1Zm90 88-7-6 1-2h2l5 5 1 2-2 1Zm21-41-8-1-1-2 1-2 9 2 1 2-2 1Zm-77-59-1-1-4-7v-3l2 1 4 8v2h-1Z"/>
</svg>
