<?xml version="1.0" standalone="no"?>
<!DOCTYPE svg PUBLIC "-//W3C//DTD SVG 20010904//EN"
 "http://www.w3.org/TR/2001/REC-SVG-20010904/DTD/svg10.dtd">
<svg version="1.0" xmlns="http://www.w3.org/2000/svg"
 width="848.000000pt" height="848.000000pt" viewBox="0 0 848.000000 848.000000"
 preserveAspectRatio="xMidYMid meet">
<metadata>
Created by potrace 1.14, written by Peter Selinger 2001-2017
</metadata>
<g transform="translate(0.000000,848.000000) scale(0.100000,-0.100000)"
fill="#000000" stroke="none">
<path d="M5046 8083 c-7 -7 -7 -7 -81 -17 -57 -7 -69 -9 -148 -30 -32 -9 -68
-21 -78 -27 -11 -6 -28 -12 -37 -14 -22 -4 -130 -54 -162 -75 -93 -61 -139
-93 -165 -115 -122 -105 -227 -234 -290 -358 -22 -42 -43 -77 -46 -77 -4 0
-22 14 -40 30 -19 17 -54 45 -79 62 -25 18 -47 34 -50 38 -23 28 -220 126
-323 161 -226 75 -487 74 -706 -1 -199 -69 -384 -201 -526 -375 -124 -153
-228 -376 -261 -562 -2 -13 -6 -34 -8 -48 -6 -32 -14 -45 -29 -45 -19 0 -138
-62 -202 -105 -86 -58 -213 -189 -277 -286 -52 -79 -108 -185 -112 -212 -1 -7
-4 -17 -8 -22 -6 -10 -36 -121 -44 -160 -6 -35 -16 -100 -16 -110 0 -16 12
-157 16 -195 3 -19 7 -57 10 -85 4 -27 9 -69 11 -92 l5 -41 -52 -17 c-29 -10
-81 -30 -116 -46 -35 -16 -67 -29 -72 -29 -5 0 -10 -4 -12 -8 -1 -4 -30 -23
-63 -41 -73 -41 -162 -98 -194 -126 -53 -44 -148 -142 -176 -180 -17 -22 -32
-42 -35 -45 -24 -24 -101 -182 -130 -270 -23 -68 -27 -84 -36 -140 -3 -19 -7
-46 -10 -60 -13 -78 0 -283 25 -367 5 -18 7 -33 4 -33 -3 0 -1 -6 4 -12 6 -7
13 -26 17 -41 12 -50 75 -177 123 -250 55 -80 234 -267 258 -267 2 0 37 -21
77 -46 104 -66 112 -71 118 -70 3 0 19 -8 35 -20 75 -52 292 -120 409 -128 61
-4 75 -14 77 -53 2 -25 3 -30 12 -55 14 -37 20 -53 23 -63 11 -38 32 -85 47
-108 9 -14 17 -29 17 -32 0 -9 70 -115 95 -144 91 -107 214 -206 295 -237 8
-4 29 -12 45 -19 137 -60 353 -72 505 -30 30 9 62 17 70 19 41 7 154 61 217
103 64 42 203 173 203 191 0 7 4 12 9 12 5 0 12 8 15 18 4 10 14 27 24 38 10
10 24 35 32 54 23 57 37 66 60 38 11 -12 19 -26 20 -30 0 -4 16 -24 35 -44 19
-19 35 -39 35 -42 0 -4 11 -20 25 -36 29 -34 130 -236 175 -351 37 -93 68
-185 63 -185 -3 0 -1 -6 5 -12 8 -11 17 -42 28 -93 1 -5 11 -55 22 -110 11
-55 23 -122 27 -150 3 -27 8 -63 10 -80 12 -77 28 -341 29 -472 1 -40 5 -73 9
-73 5 0 5 -5 1 -11 -9 -15 -11 -99 -3 -99 4 0 4 -14 0 -32 -4 -17 -4 -58 -1
-90 3 -32 4 -61 1 -63 -2 -3 -3 -41 -2 -85 2 -76 4 -82 36 -115 45 -48 24 -45
345 -46 131 0 122 0 195 0 93 1 335 1 388 0 6 0 37 0 67 0 30 0 63 0 72 0 10
0 36 19 58 42 39 41 45 52 40 74 -1 6 -1 36 -1 68 2 60 2 79 0 100 -1 21 10
238 17 307 3 36 7 83 9 105 6 63 14 138 19 165 3 14 7 52 11 85 4 32 9 63 11
67 3 4 7 22 9 40 2 18 7 49 10 68 9 53 73 293 90 342 9 24 23 63 32 88 23 65
117 245 142 271 12 13 21 26 21 30 0 16 38 18 118 6 116 -17 264 -14 372 8 14
3 38 8 54 10 25 5 85 25 204 69 18 7 38 18 44 24 7 7 16 12 21 12 10 0 132 75
154 94 7 6 24 20 38 31 15 11 44 37 66 58 l39 37 40 -20 c81 -42 215 -82 315
-95 57 -8 165 -11 165 -5 0 3 17 4 39 4 21 -1 60 2 87 8 27 5 58 10 69 12 12
1 25 5 30 8 6 3 35 13 65 23 99 32 281 135 303 172 4 7 12 13 17 13 5 0 33 26
62 57 29 31 61 65 71 75 9 10 17 22 17 28 0 5 6 13 13 17 6 4 20 22 30 38 22
38 87 164 86 167 0 2 5 17 11 33 10 26 30 99 46 167 3 13 7 73 9 133 3 116
-17 251 -51 355 -10 30 -18 57 -19 60 -3 17 -81 160 -101 187 -13 17 -24 34
-24 38 0 3 -23 29 -51 58 -28 29 -54 57 -57 62 -7 10 -91 73 -147 110 -32 22
-71 41 -94 47 -10 3 -6 12 13 35 14 17 26 36 26 42 0 6 5 11 10 11 6 0 10 6
10 14 0 8 4 16 9 18 23 9 132 249 147 323 2 11 6 31 9 45 45 212 34 399 -35
598 -17 48 -31 92 -33 97 -1 6 -5 15 -9 20 -3 6 -21 37 -39 70 -18 33 -49 83
-68 110 -48 67 -191 215 -208 215 -7 0 -13 4 -13 9 0 14 -103 79 -201 127
-186 92 -398 128 -584 100 -27 -4 -70 -9 -95 -12 -25 -3 -56 -7 -69 -9 -32 -6
-43 2 -31 23 11 18 38 95 45 125 2 10 6 26 9 35 6 20 13 56 25 127 9 50 7 298
-2 345 -3 14 -8 41 -11 60 -10 51 -26 112 -35 135 -80 195 -118 265 -193 360
-46 58 -135 155 -142 155 -3 0 -20 13 -38 30 -57 52 -68 60 -76 60 -5 0 -17 9
-27 20 -10 11 -20 18 -23 15 -3 -3 -13 1 -21 9 -16 14 -155 86 -176 91 -5 1
-23 7 -39 14 -81 33 -212 61 -313 66 -34 2 -66 6 -72 9 -5 4 -12 3 -14 -2 -6
-8 -70 -7 -85 2 -5 3 -12 2 -16 -1z m-595 -4525 c7 -24 13 -47 15 -53 1 -5 11
-41 23 -80 12 -38 27 -88 33 -110 6 -22 14 -51 19 -65 5 -14 11 -36 13 -50 3
-14 5 -26 7 -27 1 -2 2 -6 3 -10 15 -65 41 -128 61 -147 28 -28 31 -47 13 -79
-7 -12 -13 -26 -14 -32 -1 -5 -16 -46 -34 -90 -18 -44 -39 -98 -47 -120 -9
-22 -19 -49 -24 -60 -14 -36 -32 -100 -28 -101 2 0 -1 -7 -7 -15 -6 -8 -16
-33 -24 -57 -12 -37 -33 -53 -36 -26 -1 9 -9 34 -24 69 -5 11 -34 85 -65 165
-31 80 -60 150 -65 155 -5 6 -8 14 -8 18 1 9 -53 128 -62 137 -3 3 -16 28 -30
55 -21 42 -64 119 -113 200 -7 11 -17 24 -23 30 -5 5 -27 31 -47 57 -40 51
-40 51 28 62 122 21 327 121 401 196 11 10 20 19 21 19 1 1 8 -18 14 -41z"/>
</g>
</svg>
