<?xml version="1.0" standalone="no"?>
<!DOCTYPE svg PUBLIC "-//W3C//DTD SVG 20010904//EN"
 "http://www.w3.org/TR/2001/REC-SVG-20010904/DTD/svg10.dtd">
<svg version="1.0" xmlns="http://www.w3.org/2000/svg"
 width="1024.000000pt" height="1024.000000pt" viewBox="0 0 1024.000000 1024.000000"
 preserveAspectRatio="xMidYMid meet">
<metadata>
Created by potrace 1.14, written by Peter Selinger 2001-2017
</metadata>
<g transform="translate(0.000000,1024.000000) scale(0.100000,-0.100000)"
fill="#000000" stroke="none">
<path d="M7257 9404 c-1 -1 -47 -4 -102 -8 -111 -7 -103 -5 -234 -36 -99 -24
-334 -101 -386 -127 -63 -32 -153 -90 -230 -147 -79 -59 -305 -279 -305 -297
0 -5 -6 -9 -12 -9 -7 -1 -31 -26 -53 -57 -22 -31 -48 -64 -57 -72 -10 -9 -18
-20 -18 -25 0 -4 -18 -35 -40 -67 -22 -32 -40 -62 -40 -65 0 -4 -19 -24 -41
-46 -39 -38 -126 -98 -334 -233 -49 -32 -102 -66 -117 -76 -15 -11 -34 -19
-43 -19 -8 0 -15 -4 -15 -9 0 -6 -24 -17 -52 -25 -334 -96 -625 -212 -838
-334 -94 -54 -318 -199 -375 -244 -57 -45 -226 -212 -266 -264 -42 -55 -106
-94 -179 -109 -64 -14 -253 -95 -313 -135 -32 -22 -61 -40 -64 -40 -2 0 -10
-6 -18 -13 -7 -7 -27 -25 -44 -40 -17 -14 -32 -36 -34 -49 -2 -17 -20 -31 -68
-55 -105 -53 -270 -130 -328 -153 -163 -63 -521 -281 -521 -316 0 -4 7 -15 16
-25 15 -17 11 -20 -72 -59 -49 -22 -91 -44 -94 -48 -6 -10 -219 -152 -226
-152 -3 0 -55 -33 -117 -73 -102 -67 -138 -95 -230 -180 -16 -15 -35 -31 -41
-35 -19 -12 -56 -64 -56 -79 0 -10 12 -13 46 -12 25 2 47 7 50 11 3 5 9 6 14
3 7 -4 114 36 165 62 53 28 237 95 243 89 14 -15 -18 -41 -82 -67 -37 -15
-113 -50 -168 -78 -56 -28 -107 -51 -114 -51 -8 0 -40 -14 -71 -31 -122 -65
-149 -102 -98 -135 19 -12 47 -16 116 -15 50 1 94 3 98 5 3 2 38 7 76 10 39 3
81 8 95 11 29 5 259 35 310 40 19 2 49 6 65 9 17 3 82 8 145 11 63 4 143 8
178 10 68 4 79 -8 43 -44 -10 -10 -23 -25 -27 -34 -5 -8 -30 -39 -56 -68 -88
-102 -108 -127 -108 -133 0 -12 -77 -111 -127 -163 -13 -13 -23 -28 -23 -33 0
-4 -4 -10 -8 -12 -10 -3 -86 -64 -112 -89 -65 -61 -189 -163 -207 -170 -13 -5
-23 -13 -23 -19 0 -5 -4 -10 -10 -10 -5 0 -22 -10 -37 -23 -30 -25 -163 -158
-163 -164 0 -1 -9 -12 -20 -23 -12 -12 -18 -29 -16 -42 3 -13 5 -26 5 -29 1
-9 54 -30 77 -31 76 -2 283 62 479 149 93 41 190 84 215 95 25 10 54 23 65 28
45 21 210 88 212 86 2 -1 -18 -60 -43 -132 -44 -125 -118 -373 -128 -425 -22
-130 -69 -243 -157 -384 -21 -33 -55 -90 -76 -127 -20 -38 -41 -68 -45 -68 -4
0 -8 -4 -8 -8 0 -9 -131 -253 -146 -273 -6 -8 -22 -34 -35 -59 -13 -25 -27
-47 -30 -50 -4 -3 -30 -48 -59 -100 -54 -97 -188 -302 -202 -308 -5 -2 -8 -10
-8 -18 0 -8 -4 -14 -10 -14 -5 0 -10 -4 -10 -9 0 -5 -35 -65 -78 -133 -163
-257 -404 -663 -462 -778 -145 -285 -154 -306 -158 -357 -6 -67 15 -103 58
-103 32 0 140 46 152 64 5 7 8 5 11 -4 21 -68 36 -96 57 -108 29 -15 93 -8
122 12 14 10 27 11 51 4 85 -26 186 40 315 207 5 6 25 45 45 89 21 43 44 84
51 92 8 7 16 19 19 26 2 7 7 11 10 7 4 -3 -1 -29 -10 -57 -15 -45 -15 -59 -4
-100 37 -139 186 -183 499 -147 100 12 132 15 227 20 55 4 116 8 135 11 19 3
197 7 395 9 198 3 396 7 440 9 44 3 134 8 200 12 66 3 143 8 170 10 28 2 174
6 325 10 151 3 289 7 305 8 35 3 66 -9 118 -46 38 -27 67 -28 67 -3 0 7 -7 15
-15 19 -8 3 -15 10 -15 16 0 7 46 10 141 9 l141 -1 49 -44 c73 -65 197 -116
217 -91 15 18 -2 51 -34 67 -32 16 -54 35 -54 45 0 6 143 0 250 -10 25 -2 79
-7 120 -11 41 -3 82 -7 90 -9 8 -1 60 -6 115 -10 55 -4 102 -8 105 -10 3 -1
50 -6 105 -10 55 -3 111 -8 125 -10 14 -2 77 -7 140 -10 63 -2 149 -7 190 -10
41 -2 113 -7 160 -10 47 -3 99 -8 115 -10 17 -2 57 -7 90 -10 220 -22 324
-108 469 -386 10 -19 24 -42 30 -51 20 -27 137 -97 175 -105 52 -10 52 -10 94
4 21 7 41 12 45 12 26 -4 47 5 79 36 20 19 40 35 43 35 21 0 77 133 93 220 39
208 102 311 311 505 62 58 178 152 251 205 50 35 92 67 95 70 3 3 50 39 105
80 234 175 325 266 429 427 65 101 119 220 124 274 l4 47 -53 27 c-52 25 -98
68 -99 91 -1 27 -58 65 -107 71 l-51 5 -20 -68 c-12 -38 -29 -98 -38 -134 -10
-36 -26 -78 -36 -95 -9 -16 -27 -47 -38 -67 -20 -37 -59 -77 -141 -145 -84
-69 -89 -73 -95 -73 -3 0 -24 -13 -47 -29 -23 -15 -62 -38 -87 -51 -25 -12
-47 -25 -50 -29 -3 -3 -16 -12 -30 -20 -133 -76 -168 -95 -204 -107 -54 -20
-98 -30 -218 -49 -18 -3 -40 -7 -48 -10 -76 -20 -333 -26 -410 -9 -93 20 -99
23 -77 38 29 22 30 91 3 135 -25 38 -63 74 -87 80 -40 10 -90 12 -122 3 -28
-8 -43 -6 -78 10 -24 10 -46 22 -49 26 -19 27 -110 36 -143 15 -6 -4 -14 -8
-17 -9 -3 0 -25 -6 -50 -13 -74 -22 -101 -25 -201 -25 -56 0 -103 4 -110 11
-8 6 -30 14 -49 18 -19 4 -55 18 -80 32 -42 23 -304 282 -460 454 -36 39 -83
91 -105 114 -149 156 -261 280 -303 334 -15 19 -44 52 -64 75 -21 23 -40 49
-43 59 -4 9 -10 17 -15 17 -10 0 -6 31 13 90 13 40 16 83 21 240 1 25 5 50 9
56 3 6 32 19 64 28 239 70 507 165 630 221 17 8 34 15 38 15 37 0 400 213 413
243 2 4 9 7 16 7 13 0 148 122 225 203 46 48 65 59 55 32 -11 -28 12 -15 46
27 19 23 42 49 51 57 21 22 102 121 122 151 72 107 142 193 133 166 -7 -19 -6
-19 14 -1 21 19 75 109 122 205 15 30 46 83 68 117 22 35 42 73 46 85 10 38
78 161 87 157 31 -16 92 234 113 466 4 39 8 77 10 85 1 8 3 20 3 25 1 6 6 3
11 -5 8 -12 10 -12 11 5 0 11 2 31 4 45 3 14 5 90 5 169 1 109 4 141 12 133
23 -23 28 -11 27 66 -1 83 29 246 63 346 58 169 128 274 348 516 105 116 180
207 180 220 0 5 4 10 9 10 5 0 14 14 21 30 7 17 16 30 21 30 5 0 9 5 9 11 0
16 74 121 106 150 16 15 45 31 64 37 30 10 227 55 285 66 30 6 234 53 373 86
67 17 146 32 175 36 75 8 80 10 67 34 -50 94 -456 278 -785 356 -85 21 -92 26
-105 78 -34 138 -73 221 -153 321 -40 50 -157 165 -168 165 -3 0 -17 9 -30 21
-98 85 -401 206 -563 224 -73 8 -226 21 -229 19z m-3653 -5327 c23 -22 155
-64 303 -97 59 -13 61 -16 62 -110 2 -82 7 -110 32 -185 20 -58 64 -135 79
-135 14 0 90 -130 171 -295 45 -93 82 -173 81 -177 -1 -3 5 -12 13 -18 8 -7
15 -17 15 -22 0 -5 9 -28 19 -51 11 -23 30 -67 44 -97 13 -30 33 -75 45 -100
40 -88 82 -210 82 -237 0 -31 -18 -103 -26 -103 -3 0 -19 8 -37 17 -18 10 -59
25 -92 34 -84 22 -132 4 -187 -68 l-39 -51 -67 4 c-37 2 -84 6 -104 9 -21 3
-57 8 -80 11 -96 12 -166 26 -223 44 -211 64 -267 84 -325 116 -145 77 -186
94 -265 105 -43 6 -113 21 -155 34 -204 64 -263 68 -392 30 -25 -7 -49 -11
-52 -8 -3 3 13 40 36 82 22 42 68 128 101 191 33 63 95 174 136 246 42 72 105
181 141 243 121 210 160 261 241 319 90 64 247 184 274 210 41 38 108 82 126
82 10 0 29 -10 43 -23z m958 -206 c4 -4 10 -24 12 -46 17 -146 63 -284 117
-354 l19 -24 0 27 c0 36 13 26 47 -34 27 -47 57 -68 69 -48 4 6 10 6 17 -1 16
-16 37 -13 37 6 0 13 4 12 19 -6 20 -22 20 -22 44 -4 14 10 35 33 47 51 21 30
54 43 62 23 2 -5 95 -103 208 -218 113 -115 241 -248 285 -297 44 -48 96 -105
115 -125 31 -34 64 -71 140 -161 12 -14 45 -52 73 -84 93 -105 97 -111 98
-121 6 -45 -29 -80 -93 -95 -34 -9 -90 -10 -176 -5 -70 3 -163 8 -207 9 -81 3
-185 15 -196 22 -4 2 -24 6 -45 9 -22 3 -48 7 -59 9 -11 3 -30 5 -41 5 -14 1
-26 12 -34 31 -18 44 -62 72 -114 72 -24 0 -53 -5 -64 -11 -29 -15 -119 -5
-140 16 -24 24 -56 72 -116 173 -42 71 -138 272 -206 430 -34 80 -70 163 -80
185 -21 48 -68 190 -74 225 -3 14 -5 27 -6 30 -2 3 -2 8 -1 12 0 4 3 28 5 52
3 25 10 62 15 83 10 38 16 69 27 133 3 19 8 39 11 43 6 10 174 -1 185 -12z"/>
</g>
</svg>
